<?xml version="1.0" encoding="UTF-8" standalone="no"?>
<svg
   xmlns:dc="http://purl.org/dc/elements/1.1/"
   xmlns:cc="http://creativecommons.org/ns#"
   xmlns:rdf="http://www.w3.org/1999/02/22-rdf-syntax-ns#"
   xmlns:svg="http://www.w3.org/2000/svg"
   xmlns="http://www.w3.org/2000/svg"
   xmlns:sodipodi="http://sodipodi.sourceforge.net/DTD/sodipodi-0.dtd"
   xmlns:inkscape="http://www.inkscape.org/namespaces/inkscape"
   enable-background="new 0 0 128 128"
   id="Слой_1"
   version="1.1"
   viewBox="0 0 128 128"
   xml:space="preserve"
   sodipodi:docname="xmission.svg"
   inkscape:version="0.92.5 (2060ec1f9f, 2020-04-08)"><metadata
     id="metadata1036"><rdf:RDF><cc:Work
         rdf:about=""><dc:format>image/svg+xml</dc:format><dc:type
           rdf:resource="http://purl.org/dc/dcmitype/StillImage" /><dc:title></dc:title></cc:Work></rdf:RDF></metadata><defs
     id="defs1034" /><sodipodi:namedview
     pagecolor="#ffffff"
     bordercolor="#666666"
     borderopacity="1"
     objecttolerance="10"
     gridtolerance="10"
     guidetolerance="10"
     inkscape:pageopacity="0"
     inkscape:pageshadow="2"
     inkscape:window-width="1920"
     inkscape:window-height="1151"
     id="namedview1032"
     showgrid="false"
     inkscape:zoom="5.2149125"
     inkscape:cx="36.77656"
     inkscape:cy="72.604652"
     inkscape:window-x="1200"
     inkscape:window-y="343"
     inkscape:window-maximized="1"
     inkscape:current-layer="Слой_1" /><g
     id="g1682"
     transform="matrix(2.5166297,0,0,2.5166297,-97.064301,-120.72062)"
     style="stroke-width:0.39735687"><g
       id="g1005"
       style="stroke-width:0.39735687"><g
         id="g987"
         style="stroke-width:0.39735687"><path
           style="fill:#9e715f;stroke-width:0.39735687"
           inkscape:connector-curvature="0"
           id="path985"
           d="M 80.6,54.9 H 47.4 c -1,0 -1.8,0.8 -1.8,1.8 v 33.2 c 0,1 0.8,1.8 1.8,1.8 h 33.2 c 1,0 1.8,-0.8 1.8,-1.8 V 56.7 c 0,-1 -0.8,-1.8 -1.8,-1.8 z" /></g><g
         style="opacity:0.15;stroke-width:0.39735687"
         id="g991"><path
           style="fill:#04080a;stroke-width:0.39735687"
           inkscape:connector-curvature="0"
           id="path989"
           d="M 80.6,54.9 H 47.4 c -1,0 -1.8,0.8 -1.8,1.8 v 33.2 c 0,1 0.8,1.8 1.8,1.8 h 33.2 c 1,0 1.8,-0.8 1.8,-1.8 V 56.7 c 0,-1 -0.8,-1.8 -1.8,-1.8 z" /></g><g
         id="g995"
         style="stroke-width:0.39735687"><path
           style="fill:#2d2e2d;stroke-width:0.39735687"
           inkscape:connector-curvature="0"
           id="path993"
           d="M 80.6,53.7 H 47.4 c -1.7,0 -3.1,1.4 -3.1,3.1 V 90 c 0,1.7 1.4,3.1 3.1,3.1 h 33.2 c 0,0 0,0 0,0 1.7,0 3.1,-1.4 3.1,-3.1 V 56.8 c 0,-1.7 -1.4,-3.1 -3.1,-3.1 z M 81.2,90 c 0,0.3 -0.3,0.6 -0.6,0.6 H 47.4 c -0.3,0 -0.6,-0.3 -0.6,-0.6 V 56.8 c 0,-0.3 0.3,-0.6 0.6,-0.6 h 33.2 c 0.3,0 0.6,0.3 0.6,0.6 z" /></g><g
         id="g999"
         style="stroke-width:0.39735687"><polygon
           style="fill:#9e715f;stroke-width:0.39735687"
           id="polygon997"
           points="82.4,60.6 76.7,54.9 45.6,86.2 51.3,91.9 " /></g><g
         id="g1003"
         style="stroke-width:0.39735687"><path
           style="fill:#2d2e2d;stroke-width:0.39735687"
           inkscape:connector-curvature="0"
           id="path1001"
           d="m 77.6,54 c -0.2,-0.2 -0.6,-0.4 -0.9,-0.4 0,0 0,0 0,0 -0.3,0 -0.6,0.1 -0.9,0.4 L 44.7,85.3 c -0.5,0.5 -0.5,1.3 0,1.8 l 5.7,5.7 c 0.2,0.2 0.6,0.4 0.9,0.4 0,0 0,0 0,0 0.3,0 0.6,-0.1 0.9,-0.4 L 83.3,61.6 c 0.5,-0.5 0.5,-1.3 0,-1.8 z m -26.3,36.1 -3.9,-3.9 29.4,-29.5 3.9,3.9 z" /></g></g><g
       style="opacity:0.15;stroke-width:0.39735687"
       id="g1009"><path
         style="fill:#04080a;stroke-width:0.39735687"
         inkscape:connector-curvature="0"
         id="path1007"
         d="M 80.6,54.9 H 47.4 c -1,0 -1.8,0.8 -1.8,1.8 v 7.4 c 0,0 0,0 0.1,0 h 36.8 c 0,0 0,0 0.1,0 v -7.4 c -0.2,-1 -1,-1.8 -2,-1.8 z" /></g><g
       id="g1013"
       style="stroke-width:0.39735687"><path
         style="fill:#9e715f;stroke-width:0.39735687"
         inkscape:connector-curvature="0"
         id="path1011"
         d="M 82.4,52.7 H 45.6 c -1.3,0 -2.3,1 -2.3,2.3 v 3.5 c 0,1.3 1,2.3 2.3,2.3 h 36.8 c 1.3,0 2.3,-1 2.3,-2.3 V 55 c 0,-1.3 -1,-2.3 -2.3,-2.3 z" /></g><g
       id="g1017"
       style="stroke-width:0.39735687"><path
         style="fill:#9e715f;stroke-width:0.39735687"
         inkscape:connector-curvature="0"
         id="path1015"
         d="M 82.4,85.9 H 45.6 c -1.3,0 -2.3,1 -2.3,2.3 v 3.5 c 0,1.3 1,2.3 2.3,2.3 h 36.8 c 1.3,0 2.3,-1 2.3,-2.3 v -3.5 c 0,-1.2 -1,-2.3 -2.3,-2.3 z" /></g><g
       id="g1021"
       style="stroke-width:0.39735687"><path
         style="fill:#2d2e2d;stroke-width:0.39735687"
         inkscape:connector-curvature="0"
         id="path1019"
         d="M 82.4,51.4 H 45.6 C 43.6,51.4 42,53 42,55 v 3.5 c 0,2 1.6,3.6 3.6,3.6 h 36.8 c 2,0 3.6,-1.6 3.6,-3.6 V 55 c -0.1,-2 -1.7,-3.6 -3.6,-3.6 z m 1,7 c 0,0.6 -0.5,1.1 -1.1,1.1 H 45.6 C 45,59.5 44.5,59 44.5,58.4 V 55 c 0,-0.6 0.5,-1.1 1.1,-1.1 h 36.8 c 0.6,0 1.1,0.5 1.1,1.1 v 3.4 z" /></g><g
       id="g1025"
       style="stroke-width:0.39735687"><path
         style="fill:#2d2e2d;stroke-width:0.39735687"
         inkscape:connector-curvature="0"
         id="path1023"
         d="M 82.4,84.7 H 45.6 c -2,0 -3.6,1.6 -3.6,3.6 v 3.5 c 0,2 1.6,3.6 3.6,3.6 h 36.8 c 2,0 3.6,-1.6 3.6,-3.6 v -3.5 c -0.1,-2 -1.7,-3.6 -3.6,-3.6 z m 1,7 c 0,0.6 -0.5,1.1 -1.1,1.1 H 45.6 c -0.6,0 -1.1,-0.5 -1.1,-1.1 v -3.5 c 0,-0.6 0.5,-1.1 1.1,-1.1 h 36.8 c 0.6,0 1.1,0.5 1.1,1.1 v 3.5 z" /></g></g></svg>